# xmcd
#
# Track frame offsets:
#	150
#	17150
#	31363
#	45291
#	61632
#	75379
#	90379
#	108371
#	124123
#	135738
#	145713
#	159847
#	172384
#	201035
#	219921
#	248376
#	263760
#	281834
#	307165
#	337813
#
# Disc length: 4734 seconds
#
# Revision: 1
# Processed by: cddbd v1.5.2PL0 Copyright (c) Steve Scherf et al.
# Submitted via: audiograbber 1.83.01
#
DISCID=05127c14
DTITLE=Billie Holiday - BILLIE HOLIDAY - The Ultimate Collection [CD 3)
DYEAR=1900
DGENRE=Blues
TTITLE0=Lady sings the blues
TTITLE1=Trav'lin light
TTITLE2=I must have that man
TTITLE3=Some other spring
TTITLE4=Strange fruit
TTITLE5=No good man
TTITLE6=God bless the child
TTITLE7=Good morning heartache
TTITLE8=Love me or leave me
TTITLE9=Too marvellous for words
TTITLE10=Willow weep for me
TTITLE11=I thought about you
TTITLE12=Body and soul
TTITLE13=They can't take that away from me
TTITLE14=Dam that dream
TTITLE15=Let's call the whole thing off
TTITLE16=Comes love
TTITLE17=Gee baby, ain't I good to you?
TTITLE18=Embraceable you
TTITLE19=Moonlight in Vermont
EXTD=
EXTT0=
EXTT1=
EXTT2=
EXTT3=
EXTT4=
EXTT5=
EXTT6=
EXTT7=
EXTT8=
EXTT9=
EXTT10=
EXTT11=
EXTT12=
EXTT13=
EXTT14=
EXTT15=
EXTT16=
EXTT17=
EXTT18=
EXTT19=
PLAYORDER=
